# xmcd
# 
# Track frame offsets:
#     150
#     17411
#     39358
#     61436
#     79288
#     100812
#     119342
#     133850
#     149619
#     166829
#     180494
# 
# Disc length: 2666
# 
# Revision: 0
# Processed by: cddbd v1.5.2PL0 Copyright (c) Steve Scherf et al.
# Submitted via: fre:ac v1.0.17
# 
DISCID=900a680b
DTITLE=Striking Matches - Nothing But the Silence
DYEAR=2015
DGENRE=Country
TTITLE0='Trouble Is as Trouble Does’
TTITLE1='Make a Liar Out of Me’
TTITLE2='Nothing But the Silence’
TTITLE3='Hanging on a Lie’
TTITLE4=‘Never Gonna Love Again’
TTITLE5=‘When the Right One Comes Along’
TTITLE6=‘What a Broken Heart Feels Like’
TTITLE7=‘Miss Me More’
TTITLE8=‘Like Lovers’
TTITLE9=‘Missing You Tonight’
TTITLE10='God and You’
EXTD=
EXTT0=
EXTT1=
EXTT2=
EXTT3=
EXTT4=
EXTT5=
EXTT6=
EXTT7=
EXTT8=
EXTT9=
EXTT10=
PLAYORDER=
